<svg xmlns:svg="http://www.w3.org/2000/svg" xmlns="http://www.w3.org/2000/svg" viewBox="0 0 1200 1200" version="1.1" preserveAspectRatio="xMidYMid meet">
<style>.s0{fill:#70aa7d;}.s1{fill:#6b7b73;}.s2{fill:#fff;opacity:0.7;}.s3{fill:#fff;opacity:0.5;}.s4{fill:#fff;opacity:0.6;}.s5{fill:#74987c;}</style><g transform="translate(0,147.63782)"><path d="m1185.9 599c0 324.1-262.8 586.9-586.9 586.9-324.1 0-586.9-262.8-586.9-586.9 0-324.1 262.8-586.9 586.9-586.9 324.1 0 586.9 262.8 586.9 586.9z" transform="matrix(1.0052844,0,0,1.0052844,-2.1859104,-149.76219)" fill="#81bf89"/><path d="M363.4 789.7C337.9 789.7 312.7 791.1 288.6 794.3 205.7 805.3 127.2 828.7 66.1 851.4 160.5 1051.5 364.1 1190 600 1190 839.1 1190 1045 1047.8 1137.7 843.3 1085.8 824.6 980 791.4 881.4 791.4 744.3 791.4 687.2 841.4 687.2 841.4 687.2 841.4 519.4 789.7 363.4 789.7z" transform="translate(0,-147.63782)" fill="#70aa7d"/><path d="M1047.8 215.8C1043.8 216.2 1039.5 217.2 1035 218.9 984.4 237.1 987.4 311.8 984.4 297.3 981.4 282.7 972.5 246.2 933.8 259 895.1 271.7 887.7 341 887.7 341 887.7 341 878.8 319.1 860.9 319.1 843 319.1 838.6 362.8 838.6 362.8L1140.4 362.8C1129.6 338.2 1117.1 314.5 1103.2 291.8 1100.4 300.4 1099 306.3 1099 306.3L1100.3 287.1C1084.6 262 1067 238.2 1047.8 215.8zM131.8 240.9C119.5 256.9 108 273.6 97.4 290.8L262 290.8C262 290.8 258.6 273.5 245 273.5 231.4 273.5 224.6 282.2 224.6 282.2 224.6 282.2 218.9 254.7 189.4 249.7 159.9 244.6 153.1 259.1 150.8 264.8 149 269.4 150.1 252 131.8 240.9zM169 326C133.5 325.9 121.6 365 122.8 380L124.3 397.2C124.3 397.2 114.3 362.9 95.7 344.3 90.7 339.2 83 335 74.5 331.4 56.7 366.2 42.3 403 31.6 441.4L374.3 441.4C374.3 441.4 370 407.2 352.8 407.2 335.7 407.2 327.2 424.3 327.2 424.3 327.2 424.3 320 370 282.8 360 245.7 350 237.1 378.6 234.3 390 231.4 401.4 234.3 342.8 185.7 328.6 179.6 326.8 174.1 326 169 326z" transform="translate(0,-147.63782)" style="fill:#f5f5f5;opacity:0.2"/><path d="M57 368.8C26.8 439.8 10 518 10 600 10 707.6 38.8 808.5 89.2 895.4 86.6 883.4 83.9 870.4 83.9 870.4 83.6 864.5 72.2 832.7 66.6 790.5 61 748.2 62.4 745.2 63.2 737.8 64 730.4 63 730.1 62.3 725.6 61.7 721.1 61.9 718.8 70.1 712.1 78.3 705.5 87.5 699.6 89.4 697 91.3 694.4 103.5 683.5 106.5 678.5 109.4 673.5 111.8 668.1 114.2 662.3 116.6 656.5 119.9 654.2 121.9 648.8 123.9 643.5 130.6 638.9 130.6 638.9 130.6 638.9 145.2 648.3 157.6 641.9 169.9 635.6 168.3 617.5 168.3 617.5 168.3 617.5 189.1 628.7 199.6 621.7 210 614.7 212.1 603.5 210.4 598.2 208.7 593 206.2 587.8 206.2 587.8 206.2 587.8 219.8 596.4 233.3 591.7 246.8 587 245.3 576.3 245.3 576.3 245.3 576.3 247.6 580.1 257 581.5 266.4 582.9 280.9 575.3 280.9 575.3L280.3 574.7C287.8 573.9 298.2 569.6 303 541.4 310.1 500 279.8 482.8 271.7 482.8 263.6 482.8 254.6 476.7 254.6 476.7 254.6 476.7 301 457.5 269.7 430.3 238.4 403 107.1 411.1 96 420.2 84.9 429.2 85.9 420.2 85.9 420.2 85.9 420.2 126.3 406 93.9 387.8 82.2 381.3 69.2 374.5 57 368.8zM83.7 573.7L85.6 584 79.5 589 77 581.1 83.7 573.7zM107.6 578.1C111.6 578.2 113.7 583.4 117.3 587.7 121.2 592.1 118.8 598 115.3 605.8 111.8 613.6 106 610.8 95.8 610.4 85.7 610.1 85.1 606 85.1 606 85.1 606 86.9 596.1 87.6 594.2 88.2 592.3 93.3 586.5 96.5 586.1 96.5 586.1 102.3 578.8 106.8 578.2 107.1 578.1 107.4 578.1 107.6 578.1zM65.6 586.4C66.3 586.5 66.8 586.7 66.8 586.7 66.8 586.7 71.7 592.4 74.4 597.9 77 603.5 75.7 606.9 75.7 606.9 75.7 606.9 66.6 610.9 61.3 606.2 56.1 601.4 58.7 597.4 60.6 591.2 61.6 587.7 63.5 586.7 64.9 586.5 65.1 586.4 65.4 586.4 65.6 586.4zM53.5 641C54.3 640.9 55.3 641.2 56.8 642.1 62.9 645.8 69.7 649 69.7 649 69.7 649 69.8 659 70.5 664 71.2 668.9 70.2 668.1 64.5 663.4 58.8 658.8 53.4 649.9 52.6 647.3 51.9 645.3 51.3 641.3 53.5 641zM38.1 645.3C40.7 645 38.4 651.4 41.2 654.4 45 658.4 44.4 660.8 49 667.5 53.6 674.2 57.7 677.2 60.5 680.5 63.3 683.8 62.9 691.2 62.9 691.2 62.9 691.2 57 697.5 54.2 703.4 51.3 709.3 41.6 714.8 41.6 714.8 41.6 714.8 31.8 697.4 24 684.3 17.1 672.9 15.8 673.3 15.6 673.6 15.7 673.4 17.4 670 20.4 662.9 23.5 655.6 24 655.9 33.4 648.2 35.8 646.2 37.2 645.4 38.1 645.3zM93.8 645.3C98.9 645.3 104.1 645.9 104.1 645.9 104.1 645.9 102.8 655.7 100.2 663.4 97.6 671.1 81.5 686.2 81.5 686.2 81.5 686.2 81.6 667.9 80.6 661.2 79.7 654.4 81 651 83.7 647.4 84.5 646.4 86.4 645.9 88.8 645.6 90.3 645.4 92.1 645.3 93.8 645.3zM600 10C467.7 10 345.5 53.6 247.1 127.1 259.1 128.6 271.5 128.7 281.4 125.7 310 117.1 315.7 104.3 315.7 104.3 315.7 104.3 315.7 138.6 360 147.2 404.3 155.7 442.8 122.8 442.8 122.8 442.8 122.8 437.1 140 434.3 157.2 431.4 174.3 442.8 208.6 478.6 225.7 514.3 242.9 574.3 198.6 574.3 198.6 574.3 198.6 577.1 255.7 618.6 270 660 284.3 701.4 248.6 701.4 248.6 701.4 248.6 724.3 260 732.8 275.7 741.4 291.4 752.8 297.1 762.8 314.3 772.8 331.4 782.9 347.2 794.3 361.4 805.7 375.7 848.6 404.3 855.7 411.4 862.9 418.6 894.3 432.9 922.8 450 951.4 467.1 952.8 474.3 952.8 488.6 952.8 502.8 950 504.3 955.7 527.2 961.4 550 967.1 558.6 968.6 692.8 970 827.1 948.6 931.4 950 950 950 950 945.3 1022.1 941.6 1081.1 1038.5 1012.2 1113.6 914.8 1154.8 801.1 1153.1 786.7 1151.4 774.3 1151.4 774.3 1151.4 774.3 1154.3 734.3 1150 722.8 1145.7 711.4 1148.6 695.7 1151.4 668.6 1154.3 641.4 1160 645.7 1158.6 627.2 1157.1 608.6 1158.6 541.4 1158.6 524.3 1158.6 513.8 1170.4 498.9 1179.6 489 1170.5 441.3 1155.7 395.7 1135.8 352.8 1135.8 352.8 1135.8 352.8 1135.7 352.8 1122.9 361.4 1115.7 380 1114.3 387.2 1112.9 394.3 1092.8 407.2 1092.8 407.2 1092.8 407.2 1102.9 340 1110 328.6 1112.1 325.3 1115.2 322 1118.9 318.9 1069.7 228.3 997.4 152 910 97.9 910.2 103.5 908.3 109.2 902.8 115.7 888.6 132.9 858.6 124.3 858.6 124.3 858.6 124.3 852.8 114.3 858.6 95.7 860.9 88.3 864.3 80.6 867.6 74 858.6 69.4 849.4 65.1 840.1 60.9L838.6 70 817.2 57.2 817.4 51.3C750.1 24.7 676.8 10 600 10zM748.6 48.6C762.8 48.6 784.3 68.6 784.3 68.6 794.3 68.6 812.9 84.3 815.7 90 818.6 95.7 828.6 125.7 828.6 125.7 828.6 125.7 828.6 138.6 797.2 144.3 765.7 150 748.6 161.4 734.3 138.6 720 115.7 710 98.6 720 82.8 730 67.1 734.3 48.6 748.6 48.6zM942.8 220.7C949.9 220.7 949.6 233.6 948.6 240 947.1 248.6 934.3 278.6 918.6 295.7 902.8 312.9 900 315.7 900 300 900 284.3 895.7 252.8 895.7 252.8 895.7 252.8 915.7 240 932.8 225.7 937.1 222.1 940.4 220.7 942.8 220.7zM992.8 227.4C995.5 227.3 1000.3 229.3 1008.6 234.3 1041.4 254.3 1042.9 252.9 1055.7 274.3 1068.2 295.1 1075.2 304.9 1075.6 305.5 1074.8 304.7 1070.5 304.1 1054.3 342.8 1035.7 387.1 1012.8 445.7 1012.8 445.7 1012.8 445.7 980 432.9 968.6 415.7 957.1 398.6 935.7 381.4 935.7 381.4 935.7 381.4 931.4 358.6 938.6 347.2 945.7 335.7 957.1 324.3 968.6 301.4 980 278.6 977.2 271.4 987.2 257.2 994.7 246.4 984.5 227.7 992.8 227.4zM834.7 250.8C842.3 250.6 848.6 251.5 851.4 254.3 861.4 264.3 867.2 274.3 867.2 295.7 867.2 317.1 875.7 374.3 875.7 374.3 875.7 374.3 818.6 334.3 807.2 311.4 795.7 288.6 787.2 258.6 787.2 258.6 787.2 258.6 815.2 251.2 834.7 250.8z" transform="translate(0,-147.63782)" fill="#70aa7d"/></g><rect width="14.3" height="635.7" x="593.7" y="532.9" ry="1.4" fill="#6b7b73"/><g transform="matrix(0.5905853,0,0,0.5905853,306.12525,198.11022)"><g transform="matrix(1.1783562,0,0,1.1783562,2450.4425,-1298.9778)"><g transform="translate(-905.09668,1190.7678)"><rect transform="matrix(-0.1406648,0.99005728,-0.99005728,0.14066481,0,0)" y="454" x="19.4" height="263" width="263" class="s2"/><rect transform="matrix(0.1406648,-0.99005728,0.99005728,-0.14066481,0,0)" y="-980.3" x="-545.4" height="263" width="263" class="s3"/><rect transform="matrix(0.99005728,0.1406648,0.14066481,0.99005728,0,0)" y="239.4" x="-1091.8" height="263" width="263" class="s2"/><rect transform="matrix(-0.99005728,-0.1406648,-0.14066481,-0.99005728,0,0)" y="-765" x="565.8" height="263" width="263" class="s3"/><rect width="263" height="263" x="123.2" y="-1125" transform="matrix(-0.60061118,-0.79954125,0.60061117,-0.79954125,0,0)" style="fill:#fff;opacity:0.4"/><rect width="263" height="263" x="522.4" y="-110.1" transform="matrix(-0.79954125,0.60061118,-0.79954125,-0.60061117,0,0)" class="s4"/><rect width="263" height="263" x="-649.6" y="599.3" transform="matrix(0.60061118,0.79954125,-0.60061118,0.79954125,0,0)" style="fill:#fff;opacity:0.8"/><rect width="263" height="263" x="-1048.9" y="-415.2" transform="matrix(0.79954125,-0.60061118,0.79954125,0.60061117,0,0)" class="s4"/></g><rect width="141.4" height="141.4" x="-130.2" y="2210.7" transform="matrix(0.70710678,0.70710678,-0.70710678,0.70710678,0,0)" fill="#fff"/></g></g><path d="m1056 580.3c0 0-14.7 70.7-11.1 156.6 3.3 79.1 8.1 118.2 8.1 118.2 0 0-43.4-78.8-56.6-138.4-13.1-59.6-22.2-132.3-22.2-132.3 0 0-19.4 67.4-6.1 168.7 9.3 70.5 34.3 130.3 34.3 130.3L873.2 622.8c0 0 96 283.9 87.9 272.8-8.1-11.1-37.4-45.4-87.9-81.8-50.5-36.4-142.4-57.6-142.4-57.6 0 0 95 50.5 127.3 86.9 32.3 36.4 54.6 76.8 54.6 76.8L783.3 829.8c0 0 97 90.9 138.4 157.6 16.2 26.1 29.7 53.6 40.3 77.6 61.6-48 113.4-108 152-176.4-12.1-31.6-23.8-68.8-29.6-105.2-14.9-93.8-28.3-203.1-28.3-203.1z" fill="#6b7b73"/><path d="m106.8 568.1c0 0 4.6 107.3-3.5 154-8 46.7-21.2 87-21.2 87l4.3-157.3c0 0-12.3 106.9-29.7 179.4 23.9 55.8 56.1 107.2 95.2 152.6 13.1-31.6 31.5-71.2 52.2-101.8 42.2-62.5 92.6-131.9 92.6-131.9 0 0-39.9 25.1-81.7 73.8-38.5 44.8-56.5 69.7-56.5 69.7 0 0 25.7-78.7 51.4-121.5 25.7-42.8 59.2-89.2 59.2-89.2 0 0-39.8 19.4-86.2 84.6-32.3 45.4-54.3 98.4-54.3 98.4l89.7-248.1c0 0-111.8 232.2-108.7 219.5 3-12.8 11-55.8 13.3-117.9 2.3-62.1-15.9-151.2-15.9-151.2zM319 747.3c0 0 4.6 104.3-3.5 156.3-8 52-21.2 101-21.2 101l4.3-160.2c0 0-12.3 114.9-29.7 198.9 23.9 40.2 56.1 70.4 95.2 90.1 13.1-40.3 31.5-91.8 52.2-136.1 42.2-90.2 92.6-192.7 92.6-192.7 0 0-39.9 51.3-81.7 127.5-38.5 70.1-56.5 106.8-56.5 106.8 0 0 25.7-95.6 51.4-155.3 25.7-59.7 59.2-128 59.2-128 0 0-39.8 45.5-86.2 141.2-32.3 66.6-54.3 134.1-54.3 134.1l89.7-307c0 0-111.8 305.6-108.7 290.9 3-14.7 11-63 13.3-126.7 2.3-63.6-15.9-140.8-15.9-140.8z" fill="#74987c"/><path d="m202.4 735.8c0 0-81.8 44.4-105.1 113.1-5 14.8-8.3 29.2-10.4 42.9 75.8 132.6 201.6 233 351.7 275.5l17.3-39.5 8.1-42.4-67.7 48.5c0 0 4-8.1 27.3-50.5 23.2-42.4-3-117.2-3-117.2 0 0-6.1 24.2-21.2 40.4-15.2 16.2-71.7 24.3-71.7 24.3 0 0 42.5-35.3 53.6-90.9 11.1-55.6-9.1-84.9-9.1-84.9 0 0-22.2 36.4-47.5 52.5-25.3 16.2-83.8 1-83.8 1 0 0 3.1-34.3 22.3-57.6 19.2-23.2 55.5-39.4 55.5-39.4 0 0-35.4-15.1-83.8-4-48.5 11.1-70.7 58.6-70.7 58.6 0 0-4-18.2 4-58.6 8.1-40.4 34.3-71.7 34.3-71.7z" fill="#6b7b73"/><path d="m763 911.2c-1.9 0.1-2.6 0.4-2.6 0.4 0 0 27.3 15.3 44 47.1 16.7 31.8 20.2 52.6 20.2 52.6 0 0-43.2-61.4-116.8-74.3-73.7-12.9-114.3-5.7-114.3-5.7 0 0 60.4 17.4 96.1 54.6 20.8 21.6 34.3 54.4 34.3 54.4 0 0-69.3-54.7-148.2-72.4-75.9-17-135.7 8.5-135.7 8.5 0 0 50.5 4.3 112 37.2 49.8 26.7 82.9 64 85 66.4-4-4.4-39.4-39.4-139.7-40.4-94.2-1-138 40-125.3 38.4 12.7-1.5 74.1-4.5 120.3 1.8 47.3 6.4 87.3 32.2 87.3 32.2 0 0-58.7-10.5-112.9-2.3-59.3 9-80.2 39.4-80.2 39.4l4.5 2.6c64.9 24.5 135.2 38 208.7 38 140 0 268.6-48.8 369.8-130.2-21.1-34.1-53.1-73-97-100.1-72.9-45-101.3-48.2-109.3-47.9z" fill="#474354"/></svg>
