<svg xmlns="http://www.w3.org/2000/svg" viewBox="0 0 1200 1200">
  <style>
    .s0{fill:#70aa7d;}.s1{fill:#6b7b73;}.s2{fill:#fff;opacity:0.7;}.s3{fill:#fff;opacity:0.5;}.s4{fill:#fff;opacity:0.6;}.s5{fill:#74987c;}
  </style>
  <path fill="#81bf89" d="M1190 600c0 326-264.2 590-590 590S10 926 10 600C10 274.2 274.2 10 600 10s590 264.2 590 590z"/>
  <path fill="#70aa7d" d="M363.4 789.7c-25.5 0-50.7 1.4-74.8 4.6-83 11-161.4 34.4-222.5 57 95 200.2 298 338.7 534 338.7 239 0 445-142.2 538-346.7-52-18.7-157-52-256-52-137 0-194 50-194 50s-168-51.6-324-51.6z"/>
  <path fill="#f5f5f5" d="M1047.8 215.8c-4 .4-8.3 1.4-12.8 3-50.6 18.3-47.6 93-50.6 78.5-3-14.6-12-51-50.6-38.3-38.7 12.7-46 82-46 82s-9-22-27-22c-17.8 0-22.2 43.8-22.2 43.8h301.8c-10.8-24.6-23.3-48.3-37.2-71-2.8 8.6-4.2 14.5-4.2 14.5l1.3-19.2c-15.7-25-33.3-48-52.5-71zm-916 25c-12.3 16-23.8 32.8-34.4 50H262s-3.4-17.3-17-17.3-20.4 8.7-20.4 8.7-5.7-27.5-35.2-32.5c-29.5-5-36.3 9.4-38.6 15-1.8 4.7-.7-12.7-19-23.8zM169 326c-35.5 0-47.4 39-46.2 54l1.5 17.2s-10-34.3-28.6-53c-5-5-12.7-9.2-21.2-12.8-17.8 34.8-32.2 71.6-43 110h342.8s-4.3-34.2-21.5-34.2c-17 0-25.6 17-25.6 17S320 370 282.8 360c-37-10-45.7 18.6-48.5 30-3 11.4 0-47.2-48.6-61.4-6-1.8-11.6-2.6-16.7-2.6z" opacity=".2"/>
  <path fill="#70aa7d" d="M57 368.8C26.8 439.8 10 518 10 600c0 107.6 28.8 208.5 79.2 295.4l-5.3-25c-1-6-12-37.7-18-80-6-42.2-4-45.2-4-52.6 1-7.4 0-7.7-1-12.2-1-4.5-1-6.8 8-13.5 8-6 17-12 19-15 2-2 14-13 17-18s5-10 7-16 6-8 8-13 8-10 8-10 14 10 27 3c12-6 11-24 11-24s21 11 31 4 12.2-18 11-23l-4-10s13 9 27 4c13-5 12-15 12-15s2 4 11.2 5.7c9.3 1 24-6.4 24-6.4l-.8-.7c8-1 18-5 23-33.2 7-41-23-58-31-58s-17-6-17-6 46-19.4 15-46.6c-31.8-27-163-19-174-10s-10 0-10 0 40-14 8-32.4c-11-8-24-14.6-36-20zm26.7 205l2 10.2-6.2 5-2.5-8 6.7-7.3zm24 4.3c4 1 6 6 9.6 10 4 5 1.5 11-2 18-3.5 8-9.3 5-19.5 5-10-1-10.8-5-10.8-5s2-10 2.6-11c.6-2 5.7-7 9-8 0 0 5.7-7 10.2-8h.8zm-42 9c.6 0 1 1 1 1s5 6 7.7 11c2.6 6 1.3 9 1.3 9s-9 4-14.4 0c-5.2-5-2.6-9-.7-15 1-3 3-4 4.3-4zm-12.3 54c.8 0 1.8 1 3.3 1 6 4 13 7 13 7s0 10 .7 15-.3 4-6 0-11-13-12-16c-.6-2-1.2-6 1-6zM38 646c2.7-.3.4 6 3.2 9 3.8 4 3.2 6.5 7.8 13.2 4.6 6.6 8.7 9.6 11.5 13 2.8 3.2 2.4 10.6 2.4 10.6s-6 6.3-9 12.2c-3 6-13 11.4-13 11.4S31 698 23 684.8c-7-11.4-8.6-11-8.8-10.7 0 0 2-3 5-11s3.5-7 13-15c2.3-2 4-3 4.6-3zm55.8 0c5 0 10.3.6 10.3.6s-1 9-3 17c-3 8-19 23-19 23s0-18.4-1-25c0-7 1-10 4-14 1-1 3-1.4 5-1.7 2-1 4-1 5-1zM600 10c-132.3 0-254.5 43.6-353 117 12 1.6 24.5 1.7 34.4-1.3 28.6-8.6 34.3-21.4 34.3-21.4s0 34.3 44.3 43c44.3 8.4 82.8-24.5 82.8-24.5s-5.7 17.2-8.5 34.4c-3 17 8.5 51.4 44.3 68.5 35.7 17.2 95.7-27 95.7-27s2.8 57 44.3 71.3c41.4 14.3 82.8-21.4 82.8-21.4s23 11.4 31.4 27c8.6 15.8 20 21.5 30 38.7 10 17 20 33 31.5 47 11.4 14.4 54.3 43 61.4 50 7.2 7.3 38.6 21.6 67 38.7 28.7 17 30 24.3 30 38.6 0 14.2-2.7 15.7 3 38.6 5.7 22.8 11.4 31.4 13 165.6C970 827 948.7 931.4 950 950l-8.4 131c97-68.8 172-166.2 213.2-280-1.7-14.3-3.4-26.7-3.4-26.7s3-40-1.4-51.5c-4.3-11.4-1.4-27 1.4-54.2 3-27.2 8.6-23 7.2-41.4-1.5-18.6 0-85.8 0-103 0-10.4 11.8-25.3 21-35.2-9-47.7-24-93.3-43.8-136.2-13 8.6-20 27.2-21.5 34.4-1.4 7-21.5 20-21.5 20s10-67.2 17.2-78.6c2-3.3 5.2-6.6 9-9.7-49.3-91-121.6-167-209-221 .2 5-1.7 11-7.2 17-14.2 17-44.2 8-44.2 8s-5.8-10 0-29c2.3-8 5.7-15 9-22-9-5-18.2-9-27.5-13l-1 9-21-13v-6C750 24 677 9 600 9zm148.6 38.6c14.2 0 35.7 20 35.7 20 10 0 28.6 15.7 31.4 21.4 3 5.7 13 35.7 13 35.7s0 13-31.5 18.6c-31.5 5.7-48.6 17-63-5.7-14.2-23-24.2-40-14.2-55.8 10-15.7 14.3-34.2 28.6-34.2zm194.2 172c7 0 6.8 13 5.8 19.4-1.5 8.6-14.3 38.6-30 55.7-15.8 17.2-18.6 20-18.6 4.3s-4.3-47.2-4.3-47.2 20-12.8 37-27c4.4-3.7 7.7-5 10-5zm50 6.8c2.7 0 7.5 2 15.8 7 32.8 20 34.3 18.5 47 40 12.6 20.7 19.6 30.5 20 31-.8-.7-5-1.3-21.3 37.4-18.6 44.3-41.5 103-41.5 103s-32.8-13-44.2-30c-11.5-17.2-33-34.4-33-34.4s-4.2-22.8 3-34.2c7-11.5 18.5-23 30-45.8 11.4-22.8 8.6-30 18.6-44.2 7.5-10.8-2.7-29.5 5.6-29.8zm-158 23.4c7.5-.2 13.8.7 16.6 3.5 10 10 15.8 20 15.8 41.4s8.5 78.6 8.5 78.6-57-40-68.5-63c-11.5-22.7-20-52.7-20-52.7s28-7.4 47.5-7.8z"/>
  <rect width="14.3" height="635.7" x="593.7" y="532.9" fill="#6b7b73" ry="1.4"/>
  <path d="M808.7 317.4L783 498.6l-181.2 25.8 25.7-181.2z" class="s2"/>
  <path d="M394.6 731.4l25.8-181.2 181.2-25.8-25.8 181.2z" class="s3"/>
  <path d="M394.6 317.7l181.2 25.7 25.8 181.3L420.4 499z" class="s2"/>
  <path d="M808.5 731.3l-181.2-25.7-25.8-181.2L782.8 550z" class="s3"/>
  <path fill="#fff" d="M601.7 817l-110-146.3 110-146.3 110 146.3z" opacity=".4"/>
  <path d="M894 524L747.7 634 601.4 524l146.3-110z" class="s4"/>
  <path fill="#fff" d="M601.4 231.6l110 146.4-110 146.3-110-146.3z" opacity=".8"/>
  <path d="M308.8 524.5l146.3-110 147 110-146 110z" class="s4"/>
  <path fill="#fff" d="M601.4 454.7l69.6 69.6-69.6 69.6-69.6-70z"/>
  <path fill="#6b7b73" d="M1056 580.3s-14.7 70.7-11 156.6c3.2 79 8 118 8 118s-43.4-79-56.6-139c-13-60-22.2-133-22.2-133s-19.4 67-6 168c9.2 70 34.2 130 34.2 130L873.2 623s96 284 88 272.8c-8.2-11-37.5-45.4-88-81.8s-142.4-57.6-142.4-57.6 95 50.5 127.3 87c33 36.3 55 76.8 55 76.8L784 830s97 91 138.4 157.5c16.3 26 29.8 53.6 40.4 77.6 61.7-48 113.5-108 152-176-12-31-23.7-69-29.5-105-15-93-28.3-203-28.3-203z"/>
  <path fill="#74987c" d="M106.8 568s4.6 107.4-3.5 154c-8 47-21.3 87-21.3 87l4.5-157S74 758.8 56.7 831.2c24 55.8 56 107.2 95.2 152.6 13-31.6 31-71.2 52-101.8 42-62.5 92-132 92-132s-40 25.2-82 74c-38 44.7-56 69.6-56 69.6S184 815 210 772c25.6-42.7 59-89 59-89s-39.7 19.3-86 84.5C150.5 813 128.5 866 128.5 866l89.7-248.2S106.5 850 109.6 837.3c3-12.8 11-55.8 13.3-118 2-62-16-151-16-151zM319 747.4s4.6 104.3-3.5 156.3c-8 52-21.2 101-21.2 101l4.3-160.2s-12.3 115-29.7 199c23 40 56 70.3 95 90 13-40.3 31-91.8 52-136 42-90.5 93-193 93-193S469 856 427 932c-38.5 70.2-56.5 107-56.5 107s25.7-95.7 51.4-155.4 59-128 59-128-40 45.4-86 141.2c-33 66.6-55 134-55 134l89-307s-111 305.7-108 291c3-14.7 11-63 13-126.7 2-63-16-140-16-140z"/>
  <path fill="#6b7b73" d="M202.4 735.8s-81.8 44.4-105 113c-5 15-8.4 29.3-10.5 43 75 132.6 201 233 351 275.5l17-39.5 8-42.4-67 48.6s4-8.3 27-50.7c23-42.3-3-117.3-3-117.3s-6 25-21 41-72 25-72 25 42-35.5 53-91c11-55.7-9-85-9-85s-21 36-46 52c-26 16-84 1-84 1s3-34.4 22-57.7c19-23.4 55-39.6 55-39.6s-35.7-15-84-4c-49 10.7-71 58.3-71 58.3s-4-18 4-58.5c8-40.4 34-71.7 34-71.7z"/>
  <path fill="#474354" d="M763 911.2c-2 0-2.6.4-2.6.4s27.3 15.3 44 47c16.7 32 20.2 52.7 20.2 52.7S781.4 950 707.8 937c-73.7-13-114.3-5.7-114.3-5.7s60.4 17.4 96 54.6c21 21 34.4 54 34.4 54s-70-55-149-73c-76-17-136 8-136 8s50 4 112 37c49 26 83 64 85 66-4-5-40-40-140-41-95-1-138 40-126 38s74-5 120 1.3c47 6.7 87 32.5 87 32.5s-59-10.4-113-2c-59 9-80 39.3-80 39.3l4 2.4c65 25 135 38 208 38 140 0 268.6-48.5 370-130-21-34-53-73-97-100-73-45-101.4-48-109.4-48z"/>
</svg>
