<?xml version="1.0" encoding="UTF-8" standalone="no"?>
<!-- Created with Inkscape (http://www.inkscape.org/) -->

<svg
   xmlns:dc="http://purl.org/dc/elements/1.1/"
   xmlns:cc="http://creativecommons.org/ns#"
   xmlns:rdf="http://www.w3.org/1999/02/22-rdf-syntax-ns#"
   xmlns:svg="http://www.w3.org/2000/svg"
   xmlns="http://www.w3.org/2000/svg"
   xmlns:sodipodi="http://sodipodi.sourceforge.net/DTD/sodipodi-0.dtd"
   xmlns:inkscape="http://www.inkscape.org/namespaces/inkscape"
   width="112.88889mm"
   height="112.8889mm"
   viewBox="0 0 399.99998 400.00004"
   id="svg2"
   version="1.1"
   inkscape:version="0.91 r13725"
   sodipodi:docname="owner.svg"
   inkscape:export-filename="/home/elhombretecla/Dropbox/proyectos/TAIGA/new-design/payments/badge-owner/team-badge.png"
   inkscape:export-xdpi="90"
   inkscape:export-ydpi="90">
  <defs
     id="defs4">
    <symbol
       id="pointer"
       inkscape:label="pointer">
      <desc
         id="desc30740">Pointer</desc>
      <title
         id="title30612">pointer</title>
      <g
         transform="matrix(0.07246958,0,0,0.07246958,815.87807,812.18248)"
         id="g24931_transform">
        <path
           inkscape:connector-curvature="0"
           d="m 1598.1765,531.24701 c -0.088,5.64565 -0.1137,11.28638 -0.1563,16.9375 l -0.031,2.375 -2.375,0.0937 c -5.6353,0.18504 -11.2965,0.24827 -16.9688,0.28125 -0.3078,57.37695 -0.1375,114.72954 -0.1562,172.09375 l 0,2.46875 -2.4688,0.0312 c -4.7623,0.0495 -9.5543,0.0945 -14.3437,0.21875 l -2.5937,0.0625 0.031,-2.59375 c 0.098,-5.60682 0.056,-11.20788 -0.062,-16.78125 -19.4626,-0.1625 -38.9438,-0.2625 -58.4063,0.0625 0.025,19.3875 -0.037,38.76874 0,58.15625 5.6418,0.10838 11.3511,0.37194 17.0626,-0.0312 l 3.125,-0.21875 -0.4688,3.09375 c -0.8174,5.59842 -0.2713,11.26396 -0.25,16.875 5.385,0.28225 10.8066,0.335 16.25,0.34375 l 2.3125,0 0.1875,2.3125 c 0.9031,11.98555 0.456,24.02018 0.6562,36.0625 5.593,0.22851 11.2228,0.3195 16.8438,0.375 l 2.4375,0.0312 0.031,2.4375 c 0.09,12.02371 0.063,24.04121 0.25,36.0625 5.6454,0.0895 11.3304,0.37641 17.0312,0.0312 l 2.875,-0.15625 -0.2188,2.84375 c -0.9489,12.01858 -0.1262,24.13577 -0.2187,36.1875 5.4978,0.10863 10.9901,0.1865 16.5,0.21875 l 2.4687,0 0.031,2.46875 c 0.2423,18.56423 0.123,37.14368 0.375,55.71875 32.05,0.4625 64.125,0.50625 96.1875,0.46875 32.8251,-0.05 65.6437,0.225 98.4688,-0.5625 -0.525,-18.51809 1.1343,-37.02656 0.375,-55.53125 l -0.094,-2.65625 2.6562,0.0625 c 5.5091,0.15534 11.0273,0.0466 16.5,-0.125 0.2038,-18.41777 0.2263,-36.86167 0.25,-55.28125 l 0,-2.28125 2.25,-0.21875 c 5.5944,-0.535 11.2365,-0.57563 16.9063,-0.53125 0.1374,-20.62943 -0.2473,-41.24565 0.375,-61.875 l 0,-0.0625 0,-0.0625 c -0.6848,-24.77934 -0.2002,-49.58309 -0.5,-74.375 -5.56,0.0436 -11.1069,-0.0144 -16.625,-0.0937 l -2.4063,-0.0312 -0.062,-2.40625 c -0.1112,-5.46768 -0.1813,-10.96759 -0.094,-16.46875 -5.7053,-0.1665 -11.3755,0.0125 -17.0312,-0.3125 l -2.1876,-0.125 -0.1562,-2.1875 c -0.4013,-5.68501 -0.2038,-11.4271 -0.2813,-17.1875 -12.0944,-0.0468 -24.178,0.0516 -36.25,-0.125 l -2.4375,-0.0312 -0.031,-2.4375 c -0.094,-5.45903 -0.1587,-10.91997 -0.094,-16.40625 -18.553,-0.98216 -37.156,-0.3464 -55.7187,-0.5625 l -2.375,-0.0312 -0.094,-2.34375 c -0.2538,-5.62207 -0.3563,-11.25973 -0.3438,-16.9375 -12.0695,-0.0586 -24.1343,0.0385 -36.1875,-0.21875 l -2.4063,-0.0625 -0.031,-2.40625 c -0.2387,-24.97554 -0.1025,-49.95902 -0.1875,-74.9375 -3.2188,-0.0312 -6.4374,-0.0563 -9.6563,-0.0625 -2.3997,-0.005 -4.7903,0.006 -7.1874,0.0312 l -2.5626,0.0312 0.031,-2.5625 c 0.086,-5.73199 0.076,-11.46682 -0.4687,-17.15625 -12.7628,0.0375 -25.5188,0.075 -38.2813,0 z"
           id="path4109"
           style="color:#000000;font-style:normal;font-variant:normal;font-weight:normal;font-stretch:normal;font-size:medium;line-height:normal;font-family:Acquaintance;-inkscape-font-specification:Acquaintance;text-indent:0;text-align:start;text-decoration:none;text-decoration-line:none;letter-spacing:normal;word-spacing:normal;text-transform:none;direction:ltr;block-progression:tb;writing-mode:lr-tb;text-anchor:start;display:inline;overflow:visible;visibility:visible;fill:#ffffff;fill-opacity:1;fill-rule:nonzero;stroke:none;stroke-width:5;marker:none;enable-background:accumulate" />
        <path
           inkscape:connector-curvature="0"
           d="m 1598.1639,531.24076 c 12.7625,0.075 25.525,0.05 38.2875,0.0125 0.6125,6.4 0.5875,12.8375 0.4625,19.25 -12.975,0.125 -25.9375,-0.0375 -38.9125,0.125 0.05,-6.4625 0.062,-12.925 0.1625,-19.3875 z"
           id="path3016"
           style="fill:#1c1c1c" />
        <path
           inkscape:connector-curvature="0"
           d="m 1578.6389,550.92826 c 6.45,-0.0375 12.9125,-0.025 19.3625,-0.3 0.012,71.3625 0.125,142.725 0.05,214.0875 -6.5,0.15 -13,0.15 -19.5,0.0125 -0.125,-6.3875 -0.125,-12.7875 -0.038,-19.1875 -6.4625,-0.25 -12.925,-0.2125 -19.3875,-0.1875 -0.2125,-6.525 -0.2625,-13.0625 -0.013,-19.5875 6.45,-0.2375 12.9125,-0.1625 19.375,-0.2625 0.025,-58.1875 -0.1625,-116.375 0.15,-174.575 z"
           id="path3018"
           style="fill:#1c1c1c" />
        <path
           inkscape:connector-curvature="0"
           d="m 1636.9889,550.95326 c 6.4375,-0.0875 12.875,-0.05 19.3125,0.0125 0.087,25.8 -0.088,51.6125 0.1875,77.4125 12.875,0.3375 25.75,0.15 38.625,0.2125 -0.013,6.4375 0,12.875 0.375,19.3125 19.375,0.3125 38.7875,-0.4625 58.15,0.5625 -0.075,6.2875 -0.037,12.575 0.1,18.8625 12.9,0.2375 25.8125,0.0875 38.725,0.1375 0.088,6.4625 -0.325,12.9625 0.3625,19.4 6.4125,0.5625 12.85,0.225 19.275,0.4125 -0.1,6.3 -0.05,12.6 0.1125,18.9 6.35,0.1125 12.7125,0.1625 19.0875,0.1125 0.3,24.8125 -0.1875,49.625 0.5,74.425 -0.625,20.65 -0.25,41.3 -0.3875,61.95 -6.4,-0.05 -12.8,-0.075 -19.15,0.7125 -0.025,19.1875 -0.037,38.3875 -0.25,57.575 -6.375,0.2 -12.7625,0.4125 -19.125,0.1 -0.725,-19.525 -0.3875,-39.075 -0.2,-58.6125 6.4125,0.0625 12.8375,0.0625 19.2625,0.0125 0.013,-45.375 0.05,-90.7375 0.075,-136.1125 -6.4125,-0.0875 -12.825,-0.075 -19.2375,0 -0.3625,-6.3125 0.05,-12.6625 -0.4625,-18.9625 -6.3625,-1.225 -12.8625,-0.475 -19.2875,-0.5 -0.1375,19.4625 0.225,38.925 -0.1625,58.4 -6.35,0.0125 -12.7125,0.0125 -19.0625,0.025 -0.4375,-25.9625 0.012,-51.925 -0.15,-77.8875 -13.0125,-0.075 -26.025,-0.0375 -39.025,0 0,19.45 0.2,38.9 -0.025,58.3375 -6.45,0.1375 -12.8875,0.1375 -19.325,0.0125 -0.125,-25.9375 -0.15,-51.8875 0.1625,-77.825 -13.025,-0.0625 -26.0375,-0.075 -39.0625,0.075 -0.1375,25.9125 0.1,51.825 0,77.7375 -6.5125,0.1875 -13.0375,0.2 -19.55,0.0125 0,-58.2625 0.038,-116.5375 0.15,-174.8125 z"
           id="path3020"
           style="fill:#1c1c1c" />
        <path
           inkscape:connector-curvature="0"
           d="m 1500.6514,706.49076 c 19.4625,-0.325 38.9375,-0.225 58.4,-0.0625 0.1375,6.45 0.25,12.8875 0.062,19.3375 -12.9125,0.3 -25.825,0.075 -38.725,0.175 -0.475,12.85 0.6875,25.7375 -0.1875,38.575 -6.5,0.75 -13.05,0.25 -19.5625,0.125 -0.037,-19.3875 0.038,-38.7625 0.013,-58.15 z"
           id="path3026"
           style="fill:#1c1c1c" />
        <path
           inkscape:connector-curvature="0"
           d="m 1520.7264,764.95326 c 6.25,-0.9625 12.6,-0.6 18.9,-0.425 0.1375,6.4875 0.15,12.9875 0.087,19.4875 6.5,0.0375 12.9875,0.025 19.4875,0.1125 0.15,12.9375 0,25.875 0.075,38.8125 6.4125,-0.0375 12.8375,-0.025 19.2625,0.0625 -0.088,12.975 0.8375,26.05 -0.4875,38.9625 -6.325,0.575 -12.6625,0.125 -18.975,0.025 -0.2,-12.825 -0.175,-25.65 -0.2875,-38.475 -6.425,-0.0375 -12.85,-0.15 -19.275,-0.4125 -0.2125,-12.775 0.4125,-25.575 -0.75,-38.3125 -6.2125,0.025 -12.4375,-0.0875 -18.6375,-0.4125 -0.025,-6.475 -0.875,-13.05 0.6,-19.425 z"
           id="path3030"
           style="fill:#1c1c1c" />
        <path
           inkscape:connector-curvature="0"
           d="m 1578.9389,862.05326 c 6.35,-0.5 12.7375,-0.2 19.1125,-0.1625 0.175,12.9125 0.013,25.825 0.05,38.725 6.475,-0.025 12.975,-0.025 19.4625,0.2 0.125,12.9125 -0.1125,25.8375 0.075,38.75 51.7625,0.125 103.525,0.1 155.2875,0.075 0.2,-12.925 -0.05,-25.85 0.087,-38.7875 6.625,-0.0875 13.25,-0.175 19.875,0.2 1.05,19.375 -0.85,38.7625 -0.3,58.1625 -32.825,0.7875 -65.65,0.5 -98.475,0.55 -32.0625,0.0375 -64.125,0 -96.175,-0.4625 -0.2625,-19.3875 -0.125,-38.775 -0.4125,-58.15 -6.325,-0.0125 -12.65,-0.1125 -18.975,-0.2375 0.1,-12.95 -0.9375,-25.9875 0.3875,-38.8625 z"
           id="path3038"
           style="fill:#1c1c1c" />
      </g>
    </symbol>
  </defs>
  <sodipodi:namedview
     id="base"
     pagecolor="#ffffff"
     bordercolor="#666666"
     borderopacity="1.0"
     inkscape:pageopacity="0.0"
     inkscape:pageshadow="2"
     inkscape:zoom="0.70710678"
     inkscape:cx="127.96649"
     inkscape:cy="271.35451"
     inkscape:document-units="px"
     inkscape:current-layer="layer2"
     showgrid="false"
     borderlayer="true"
     fit-margin-top="0"
     fit-margin-left="0"
     fit-margin-right="0"
     fit-margin-bottom="0"
     inkscape:window-width="1920"
     inkscape:window-height="1056"
     inkscape:window-x="1920"
     inkscape:window-y="24"
     inkscape:window-maximized="1" />
  <metadata
     id="metadata7">
    <rdf:RDF>
      <cc:Work
         rdf:about="">
        <dc:format>image/svg+xml</dc:format>
        <dc:type
           rdf:resource="http://purl.org/dc/dcmitype/StillImage" />
        <dc:title></dc:title>
      </cc:Work>
    </rdf:RDF>
  </metadata>
  <g
     inkscape:groupmode="layer"
     id="layer2"
     inkscape:label="team-badge"
     style="display:inline"
     transform="translate(-307.46114,-88.79624)">
    <g
       style="fill:#000000"
       inkscape:label="Capa 1"
       id="g26541"
       transform="translate(307.46114,-563.56592)">
      <path
         style="opacity:1;fill:#000000;fill-opacity:1;stroke:none"
         d="M 200.02167,652.36216 146.48196,723.62471 58.666257,711.14948 71.155824,799.04256 -5e-7,852.48679 71.155824,905.93079 l -12.489567,87.89237 88.148373,-12.5218 53.38836,71.06084 53.36078,-71.02364 87.98755,12.4996 L 328.99554,905.4799 400,852.15003 l -70.80582,-53.1816 12.5022,-87.98359 -88.21618,12.53183 -53.45853,-71.15451 z"
         id="path26543"
         inkscape:connector-curvature="0" />
    </g>
  </g>
</svg>
